<mxfile host="65bd71144e" modified="2021-02-08T09:35:01.226Z" agent="5.0 (Macintosh; Intel Mac OS X 11_0_0) AppleWebKit/537.36 (KHTML, like Gecko) Code/1.52.1 Chrome/83.0.4103.122 Electron/9.3.5 Safari/537.36" version="13.10.0" etag="4j_W9LZEEzTUOK3OBD__" type="embed">
    <diagram id="p36Yqyrogv8A9jEpyJuB" name="Page-1">
        <mxGraphModel dx="820" dy="713" grid="1" gridSize="10" guides="1" tooltips="1" connect="1" arrows="1" fold="1" page="1" pageScale="1" pageWidth="850" pageHeight="1100" math="0" shadow="0">
            <root>
                <mxCell id="0"/>
                <mxCell id="1" parent="0"/>
                <mxCell id="2" value="" style="shape=umlLifeline;participant=umlActor;perimeter=lifelinePerimeter;whiteSpace=wrap;html=1;container=1;collapsible=0;recursiveResize=0;verticalAlign=top;spacingTop=36;outlineConnect=0;" vertex="1" parent="1">
                    <mxGeometry x="60" y="60" width="20" height="300" as="geometry"/>
                </mxCell>
                <mxCell id="5" value="" style="html=1;points=[];perimeter=orthogonalPerimeter;" vertex="1" parent="2">
                    <mxGeometry x="5" y="90" width="10" height="130" as="geometry"/>
                </mxCell>
                <mxCell id="3" value=":Appgateway" style="shape=umlLifeline;perimeter=lifelinePerimeter;whiteSpace=wrap;html=1;container=1;collapsible=0;recursiveResize=0;outlineConnect=0;" vertex="1" parent="1">
                    <mxGeometry x="230" y="60" width="100" height="300" as="geometry"/>
                </mxCell>
                <mxCell id="6" value="" style="html=1;points=[];perimeter=orthogonalPerimeter;" vertex="1" parent="3">
                    <mxGeometry x="45" y="85" width="10" height="130" as="geometry"/>
                </mxCell>
                <mxCell id="4" value=":Microservices" style="shape=umlLifeline;perimeter=lifelinePerimeter;whiteSpace=wrap;html=1;container=1;collapsible=0;recursiveResize=0;outlineConnect=0;" vertex="1" parent="1">
                    <mxGeometry x="420" y="60" width="100" height="300" as="geometry"/>
                </mxCell>
                <mxCell id="7" value="" style="html=1;points=[];perimeter=orthogonalPerimeter;" vertex="1" parent="4">
                    <mxGeometry x="45" y="127.5" width="10" height="45" as="geometry"/>
                </mxCell>
                <mxCell id="9" value="Anfrage erstellen" style="html=1;verticalAlign=bottom;endArrow=block;entryX=-0.1;entryY=0.154;entryDx=0;entryDy=0;entryPerimeter=0;" edge="1" target="6" parent="1" source="5">
                    <mxGeometry relative="1" as="geometry">
                        <mxPoint x="310" y="170" as="sourcePoint"/>
                        <mxPoint x="240" y="170" as="targetPoint"/>
                    </mxGeometry>
                </mxCell>
                <mxCell id="10" value="Antwort auf Webseite anzeigen" style="html=1;verticalAlign=bottom;endArrow=open;dashed=1;endSize=8;entryX=0.9;entryY=0.785;entryDx=0;entryDy=0;entryPerimeter=0;exitX=-0.1;exitY=0.808;exitDx=0;exitDy=0;exitPerimeter=0;" edge="1" source="6" parent="1" target="5">
                    <mxGeometry relative="1" as="geometry">
                        <mxPoint x="310" y="246" as="targetPoint"/>
                        <mxPoint x="260" y="248" as="sourcePoint"/>
                    </mxGeometry>
                </mxCell>
                <mxCell id="11" value="Anfrage bearbeiten" style="html=1;verticalAlign=bottom;endArrow=block;entryX=-0.1;entryY=0.175;entryDx=0;entryDy=0;entryPerimeter=0;exitX=1.2;exitY=0.331;exitDx=0;exitDy=0;exitPerimeter=0;" edge="1" parent="1" source="6" target="7">
                    <mxGeometry relative="1" as="geometry">
                        <mxPoint x="85" y="175.01999999999998" as="sourcePoint"/>
                        <mxPoint x="284" y="175.01999999999998" as="targetPoint"/>
                    </mxGeometry>
                </mxCell>
                <mxCell id="13" value="Antwort liefern" style="html=1;verticalAlign=bottom;endArrow=open;dashed=1;endSize=8;entryX=1.1;entryY=0.592;entryDx=0;entryDy=0;entryPerimeter=0;exitX=0.1;exitY=0.778;exitDx=0;exitDy=0;exitPerimeter=0;" edge="1" parent="1" source="7" target="6">
                    <mxGeometry relative="1" as="geometry">
                        <mxPoint x="84" y="262.04999999999995" as="targetPoint"/>
                        <mxPoint x="284" y="260.03999999999996" as="sourcePoint"/>
                    </mxGeometry>
                </mxCell>
            </root>
        </mxGraphModel>
    </diagram>
</mxfile>